<svg xmlns="http://www.w3.org/2000/svg" version="1.1" xmlnsXlink="http://www.w3.org/1999/xlink" xmlnsSvgjs="http://svgjs.dev/svgjs" width="100%" height="100%" viewBox="0 0 1000 600"><rect width="1000" height="600" x="0" y="0" fill="yellow"/><g><circle r="166.66666666666666" cx="318.81652323404944" cy="341.0387329752457" fill="blue" transform="matrix(0.8215584753003271,0,0,0.8215584753003271,0,19.81673088910715)"/><path d="M272.9203661169281 411.9678553190464L272.9203661169281 411.9678553190464Q263.3651458591463 411.9678553190464 254.48840277943182 407.0771656604776Q245.63992958213686 402.1864760019088 239.9576832158228 391.613539977026Q234.24716696708933 381.0406039521432 234.24716696708933 363.9373250883622L234.24716696708933 363.9373250883622Q234.24716696708933 344.9965038673155 239.84460368614495 333.6037412522679Q245.44204040520054 322.21097863722036 254.40359313217343 317.00932027203737Q263.3651458591463 311.8359317892739 272.9203661169281 311.8359317892739L272.9203661169281 311.8359317892739Q287.3662760332786 311.8359317892739 293.3877609886264 314.2671416773485Q299.38097606155463 316.6983515654232 299.38097606155463 316.6983515654232L299.38097606155463 316.6983515654232L297.34554452735256 278.2513114749402L299.38097606155463 266.038722269728L336.2166328541276 266.038722269728L336.2166328541276 377.3655192376118L340.28749592253166 397.7198345796321L336.2166328541276 410.13031296178065L301.4164075957566 410.13031296178065L301.4164075957566 400.1510444677068L299.38097606155463 399.1333287006057Q299.38097606155463 399.1333287006057 296.3278287602516 402.29955553158675Q293.2746814589485 405.46578236256767 287.3662760332786 408.71681884080704Q281.4578706076088 411.9678553190464 272.9203661169281 411.9678553190464ZM288.1861026234434 383.2739246632815L288.1861026234434 383.2739246632815L299.38097606155463 380.41866653891475L299.38097606155463 350.70702011604897Q299.38097606155463 346.01421963441646 296.3278287602516 343.2720410397276Q293.2746814589485 340.5298624450387 288.1861026234434 340.5298624450387L288.1861026234434 340.5298624450387Q280.66631389986367 340.5298624450387 276.79334000839583 345.505361750866Q272.9203661169281 350.50913093911265 272.9203661169281 361.9018935541602L272.9203661169281 361.9018935541602Q272.9203661169281 373.09676699227134 277.3870075392048 378.1853458277765Q281.88191884390096 383.2739246632815 288.1861026234434 383.2739246632815ZM403.38587348279486 393.64897151122807L380.9961266065725 416.03871838745044L358.60637973035 393.64897151122807L380.9961266065725 371.2592246350056L403.38587348279486 393.64897151122807Z " fill="yellow" transform="matrix(0.8215584753003271,0,0,0.8215584753003271,0,19.81673088910715)"/><path d="M597.3442533051874 381.04636824205863L597.3442533051874 381.04636824205863Q590.2957339412368 381.04636824205863 583.747701159342 377.43869412974084Q577.2205219850326 373.83102001742293 573.0289468603165 366.0317707803889Q568.8165181280148 358.2325215433549 568.8165181280148 345.61608895403515L568.8165181280148 345.61608895403515Q568.8165181280148 331.6441718716479 572.9455324299739 323.24016801462994Q577.0745467319331 314.83616415761196 583.6851403365849 310.9991003618519Q590.2957339412368 307.1828901736775 597.3442533051874 307.1828901736775L597.3442533051874 307.1828901736775Q608.0004467814557 307.1828901736775 612.4422651971997 308.9763004260436Q616.8632300053581 310.76971067840975 616.8632300053581 310.76971067840975L616.8632300053581 310.76971067840975L615.3617702591911 282.4088043619223L616.8632300053581 273.4000458849205L644.0354806894633 273.4000458849205L644.0354806894633 355.52155255722005L647.0384001817972 370.53615001888977L644.0354806894633 379.69088374899127L618.364689751525 379.69088374899127L618.364689751525 372.3295602712559L616.8632300053581 371.5788303981724Q616.8632300053581 371.5788303981724 614.6110403861077 373.91443444776553Q612.3588507668571 376.25003849735856 608.0004467814557 378.64820336970865Q603.6420427960544 381.04636824205863 597.3442533051874 381.04636824205863ZM608.6052014014397 359.87995654262136L608.6052014014397 359.87995654262136L616.8632300053581 357.7737421764705L616.8632300053581 335.8566006039497Q616.8632300053581 332.39490174473144 614.6110403861077 330.37210180892316Q612.3588507668571 328.34930187311477 608.6052014014397 328.34930187311477L608.6052014014397 328.34930187311477Q603.0581417836562 328.34930187311477 600.2011975444217 332.0195368081896Q597.3442533051874 335.71062535085014 597.3442533051874 344.1146292078681L597.3442533051874 344.1146292078681Q597.3442533051874 352.37265781178644 600.6391233037205 356.1263071772039Q603.9548469098391 359.87995654262136 608.6052014014397 359.87995654262136ZM695.2310873122401 381.04636824205863L695.2310873122401 381.04636824205863Q676.9216198520372 381.04636824205863 666.8701809957528 372.3295602712559Q656.7978885318827 363.6336059080388 656.7978885318827 344.1146292078681L656.7978885318827 344.1146292078681Q656.7978885318827 324.44967725459776 666.8701809957528 315.8162837141376Q676.9216198520372 307.1828901736775 695.2310873122401 307.1828901736775L695.2310873122401 307.1828901736775Q713.9993341393274 307.1828901736775 723.6962616666558 315.8162837141376Q733.3723355863985 324.44967725459776 733.3723355863985 344.1146292078681L733.3723355863985 344.1146292078681Q733.3723355863985 363.6336059080388 723.6962616666558 372.3295602712559Q713.9993341393274 381.04636824205863 695.2310873122401 381.04636824205863ZM695.2310873122401 361.52739154188794L695.2310873122401 361.52739154188794Q701.4037551575933 361.52739154188794 703.8019200299433 356.93959787304436Q706.2000849022934 352.37265781178644 706.2000849022934 344.1146292078681L706.2000849022934 344.1146292078681Q706.2000849022934 335.71062535085014 703.8019200299433 331.20624611234916Q701.4037551575933 326.7018668738483 695.2310873122401 326.7018668738483L695.2310873122401 326.7018668738483Q688.9332978213731 326.7018668738483 686.4517185186804 331.20624611234916Q683.9701392159878 335.71062535085014 683.9701392159878 344.1146292078681L683.9701392159878 344.1146292078681Q683.9701392159878 352.37265781178644 686.4517185186804 356.93959787304436Q688.9332978213731 361.52739154188794 695.2310873122401 361.52739154188794ZM775.413208479074 381.04636824205863L775.413208479074 381.04636824205863Q764.4650644966065 381.04636824205863 756.0402070320029 378.7941786228082Q747.6362031749849 376.5419890035578 742.9858486833843 374.1438241312077L742.9858486833843 374.1438241312077L742.9858486833843 353.2693629379695Q749.1376629211518 355.98033192410435 755.6648420954612 357.4817916702714Q762.212874877356 358.9832514164383 767.4679839889404 359.50459160607966Q772.7230931005248 360.0259317957209 774.9752827197754 360.0259317957209L774.9752827197754 360.0259317957209Q777.5194228452249 360.0259317957209 778.5621032245075 359.1917874922949Q779.6256372113758 358.37849679645444 779.6256372113758 357.1689875564865L779.6256372113758 357.1689875564865Q779.6256372113758 355.52155255722005 776.914668225241 354.39545774759483Q774.2245528466918 353.2693629379695 766.7172541158569 351.4759526856035L766.7172541158569 351.4759526856035Q760.5445862705037 349.97449293943646 754.768136969278 347.63888888984343Q748.9916876680522 345.3032848402503 745.3214527329775 341.1117097155342Q741.630364190317 336.8992809832323 741.630364190317 329.8507616192818L741.630364190317 329.8507616192818Q741.630364190317 321.13395364847906 745.6968176695192 316.19164865067944Q749.7424175411358 311.2284900452941 757.2497162719707 309.2056901094858Q764.7570150028056 307.1828901736775 774.8084538590902 307.1828901736775L774.8084538590902 307.1828901736775Q780.5223423375588 307.1828901736775 785.4855009429441 307.76679118607575Q790.4278059407438 308.3715458060597 792.5340203068947 308.68434991984446L792.5340203068947 308.68434991984446L806.5059373892818 317.69310839684636L799.7493685315305 333.7503862377988L773.4738229736083 328.03649775933Q768.6566396213226 328.03649775933 768.6566396213226 331.20624611234916L768.6566396213226 331.20624611234916Q768.6566396213226 334.5011161108823 775.5591837321736 336.1485511101489L775.5591837321736 336.1485511101489Q780.9811217044432 337.3580603501167 786.6741565753264 338.77610566594103Q792.3880450537952 340.2150045893511 797.1218139757383 342.46719420860154Q801.8347292900958 344.71938382785197 804.7750879596726 348.47303319326943Q807.6945930216641 352.2266825586869 807.6945930216641 358.37849679645444L807.6945930216641 358.37849679645444Q807.6945930216641 369.78542014580637 799.5199788480883 375.41589419393256Q791.3245110669268 381.04636824205863 775.413208479074 381.04636824205863ZM847.1913257888898 381.04636824205863L847.1913257888898 381.04636824205863Q836.9730580719201 381.04636824205863 830.8212438341527 375.04052925739074Q824.6694295963852 369.03469027272286 824.6694295963852 359.87995654262136L824.6694295963852 359.87995654262136L824.6694295963852 327.13979263314695L813.700432006332 327.13979263314695L813.700432006332 312.87592504456063L823.1679698502182 305.5146015668253L833.8241633264865 286.9131836004233L851.5497297742912 286.9131836004233L851.5497297742912 308.68434991984446L872.570166220629 308.68434991984446L872.570166220629 328.2033266200152L851.5497297742912 328.2033266200152L851.5497297742912 360.3178823019201L872.570166220629 360.1719070488206L872.570166220629 376.5419890035578Q872.570166220629 376.5419890035578 869.025052931068 377.668083813183Q865.5007932490928 378.7941786228082 859.8077583782097 379.9202734324334Q854.0938698997409 381.04636824205863 847.1913257888898 381.04636824205863ZM918.656638984921 285.0989197404715L899.5964416516346 304.3259459344431L880.5153907107626 285.0989197404715L899.5964416516346 266.0387224071851L918.656638984921 285.0989197404715ZM913.1095793671375 379.5449084958917L886.0833039361319 379.5449084958917L886.0833039361319 329.8507616192818L882.9135555831126 317.8390836499459L885.9164750754467 308.68434991984446L913.1095793671375 308.68434991984446L913.1095793671375 379.5449084958917ZM958.9041016252304 379.5449084958917L931.8778261942247 379.5449084958917L931.8778261942247 330.8934419985644L923.9117480965054 315.8788445368946L931.8778261942247 308.68434991984446Q931.1270963211412 306.1193561868092 930.7517313845995 301.84436663175046Q930.3763664480578 297.5693770766917 930.3763664480578 294.85840809055685L930.3763664480578 294.85840809055685Q930.3763664480578 286.3084289804393 934.3385518893317 279.84381062888707Q938.3215909381913 273.4000458849205 945.3909639097275 269.70895734225996Q952.439483273678 266.0387224071851 961.3022664975804 266.0387224071851L961.3022664975804 266.0387224071851Q965.4938416222965 266.0387224071851 970.2276105442396 266.41408734372686Q974.9613794661827 266.7894522802686 978.423078325401 267.6861574064517L978.423078325401 267.6861574064517L994.4803561663534 276.8408911365531L982.927457563902 297.71535232979124L965.6606704829817 287.2051341066224Q960.5515366244969 287.2051341066224 958.1533717521468 290.87536904169724Q955.7343532722111 294.56645758435775 955.7343532722111 299.07083682285867L955.7343532722111 299.07083682285867Q955.7343532722111 302.36570682139177 956.7978872590794 304.930700554427Q957.840567638362 307.47484067987665 958.9041016252304 308.68434991984446L958.9041016252304 308.68434991984446L982.927457563902 308.68434991984446L982.927457563902 326.7018668738483L958.9041016252304 326.7018668738483L958.9041016252304 355.22960205102095L960.4055613713972 370.3901747657902L958.9041016252304 379.5449084958917ZM1003.6350898964549 416.0387217707836L1003.6350898964549 416.0387217707836L982.4686781970177 408.53142303994866L988.4745171816855 386.1555021005436L1009.4949536280233 392.16134108521146Q1015.9595719795755 392.16134108521146 1018.8790770415669 388.7830566563357Q1021.7985821035583 385.40477222746006 1023.3000418497252 379.39893324279217L1023.3000418497252 379.39893324279217L1007.8475186287567 379.39893324279217L991.3314614209198 328.03649775933L988.4745171816855 308.51752105915926L1017.0022523588582 308.51752105915926L1025.2602809627765 358.0656926826696L1028.2632004551106 358.0656926826696L1036.5212290590289 308.51752105915926L1065.0489642362018 308.51752105915926Q1065.0489642362018 308.51752105915926 1064.0688446796757 313.25128998110245Q1063.0887251231502 317.98505890304557 1061.378729301127 325.7843081400796Q1059.6478798715175 333.60441098469926 1057.3122758219247 342.9885343982429Q1054.997525379917 352.37265781178644 1052.4325316468817 361.90275647842964Q1049.8883915214324 371.43285514507284 1047.1774225352974 379.39893324279217L1047.1774225352974 379.39893324279217Q1043.1318226636809 391.8485369714267 1037.5013486155544 399.9605903222455Q1031.8708745674285 408.07264367306436 1023.7588212166096 412.055682721924Q1015.6467678657907 416.0387217707836 1003.6350898964549 416.0387217707836Z " fill="blue" transform="matrix(0.8215584753003271,0,0,0.8215584753003271,0,19.81673088910715)"/></g></svg>