<svg xmlns="http://www.w3.org/2000/svg" version="1.1" xmlnsXlink="http://www.w3.org/1999/xlink" xmlnsSvgjs="http://svgjs.dev/svgjs" width="100%" height="100%" viewBox="0 0 1000 600"><rect width="1000" height="600" x="0" y="0" fill="black"/><g><circle r="166.66666666666666" cx="320.27871195475257" cy="342.5009495891028" fill="cyan" transform="matrix(0.8137381353860796,0,0,0.8137381353860796,0,21.29389870947921)"/><path d="M254.19590409265044 415.4919079618919L254.19590409265044 415.4919079618919Q251.2904846913182 415.4919079618919 249.5286878202976 414.93555105525377Q247.7359822322415 414.37919414861574 247.7359822322415 413.05011931609135L247.7359822322415 413.05011931609135Q247.7359822322415 410.36106093400724 255.0922568866785 409.03198610148297L255.0922568866785 409.03198610148297Q263.53033663735624 407.4865502497105 266.77575192607844 403.93204779063376Q269.9902584977652 400.34663661452157 269.9902584977652 392.12491788309205L269.9902584977652 392.12491788309205L269.9902584977652 298.22423552939625Q269.9902584977652 288.20981120991064 267.42483498382285 282.8626031627779Q264.85941146988057 277.51539511564505 256.42133171920284 275.96995926387257L256.42133171920284 275.96995926387257Q252.61955952384253 275.28996748909265 250.85776265282192 274.1772536758165Q249.06505706476582 273.0645398625403 249.06505706476582 271.5191040107678L249.06505706476582 271.5191040107678Q249.06505706476582 270.1591204612081 250.85776265282192 269.60276355456995Q252.61955952384253 269.04640664793186 255.5249789251748 269.04640664793186L255.5249789251748 269.04640664793186Q263.7466976566044 269.04640664793186 269.4339015911271 269.2936763842155Q275.1211055256498 269.5100374034636 280.6846745920307 269.60276355456995Q286.24824365841164 269.7263984227118 293.78997061506135 269.7263984227118L293.78997061506135 269.7263984227118Q300.24989247547035 269.7263984227118 307.6061671299073 269.7263984227118Q314.9315330673088 269.7263984227118 321.8550856832495 269.7263984227118L321.8550856832495 269.7263984227118Q328.964090601403 269.7263984227118 334.4040247996421 268.6136846094356Q339.8748677149166 267.5009707961594 343.86209221248964 267.5009707961594L343.86209221248964 267.5009707961594Q344.9748060257658 267.5009707961594 346.33478957532566 267.93369283465563Q347.6638644078499 268.3973235901874 347.88022542709814 269.5100374034636L347.88022542709814 269.5100374034636Q348.3129474655944 271.9518260492641 348.560217201878 276.7426771897588Q348.7765782211261 281.5335283302535 348.8693043722325 285.98438358335824Q348.9929392403743 290.435238836463 348.9929392403743 291.98067468823547L348.9929392403743 291.98067468823547Q348.9929392403743 296.6478909605883 346.98387263307006 296.6478909605883L346.98387263307006 296.6478909605883Q345.8711588197939 296.6478909605883 344.9748060257658 295.8751730347021Q344.10936194877326 295.10245510881583 343.6457311932415 293.98974129553966L343.6457311932415 293.98974129553966Q342.74937839921347 290.1879691001794 341.4203035666891 287.40618456698894Q340.0912287341648 284.62440003379845 338.54579288239233 283.07896418202597L338.54579288239233 283.07896418202597Q335.4240124618119 279.52446172294924 331.6222402664516 278.2881130415313Q327.8513767881268 277.08267307714874 323.6168825542702 277.08267307714874L323.6168825542702 277.08267307714874L295.3663151838693 277.08267307714874Q290.2354681559847 277.08267307714874 289.1227543427085 280.4208145169773Q288.0100405294323 283.75895595680583 287.7936795101841 288.20981120991064L287.7936795101841 288.20981120991064Q287.577318490936 292.4133967267318 287.577318490936 298.5333226997508Q287.577318490936 304.6532486727698 287.577318490936 310.4640874754343L287.577318490936 310.4640874754343Q287.577318490936 316.0276565418152 287.577318490936 321.80758662744427Q287.577318490936 327.58751671307334 287.7936795101841 331.60564992768184L287.7936795101841 331.60564992768184Q287.7936795101841 333.3674467987024 288.13367539757405 334.94379136751036Q288.473671284964 336.48922721928284 290.01910713673647 336.48922721928284L290.01910713673647 336.48922721928284Q297.1281120548899 336.48922721928284 304.48438670932694 336.1492313318929Q311.84066136376384 335.80923544450286 315.8278858613369 335.80923544450286L315.8278858613369 335.80923544450286Q320.74237186997334 335.80923544450286 324.29687432905007 333.1510857794542Q327.8513767881268 330.49293611440555 329.3968126398993 326.69116391904527L329.3968126398993 326.69116391904527Q329.860443395431 325.7948111250173 331.1895182279553 324.37301014138654Q332.5185930604797 322.92030044072044 333.41494585450766 322.92030044072044L333.41494585450766 322.92030044072044Q334.31129864853574 322.92030044072044 335.4240124618119 323.9093793858549Q336.5367262750881 324.9293670480247 336.32036525584 326.47480289979717L336.32036525584 326.47480289979717Q336.0730955195563 330.245666378122 335.8567345003082 333.1510857794542Q335.64037348106007 336.05650518078653 335.64037348106007 338.7146548458352L335.64037348106007 338.7146548458352Q335.64037348106007 342.0527962856637 335.8567345003082 345.51457259363406Q336.0730955195563 348.94544018456895 336.32036525584 353.8599261932055L336.32036525584 353.8599261932055Q336.32036525584 355.4053620449779 335.98036936845006 356.5180758582542Q335.64037348106007 357.63078967153035 334.31129864853574 357.63078967153035L334.31129864853574 357.63078967153035Q332.0858710219834 357.63078967153035 330.8495223405654 355.6217230642261Q329.64408237618284 353.61265645692185 329.18045162065107 352.4999426436457L329.18045162065107 352.4999426436457Q327.6350157688786 347.40000433279647 324.51323534829817 345.51457259363406Q321.3914549277178 343.5982321374362 318.73330526266915 343.5982321374362L318.73330526266915 343.5982321374362Q315.8278858613369 343.5982321374362 313.0461013281464 343.5055059863299Q310.26431679495596 343.3818711181881 307.6061671299073 343.3818711181881L307.6061671299073 343.3818711181881Q303.80439493454696 343.3818711181881 300.24989247547035 343.3818711181881Q296.6953900163936 343.3818711181881 293.1408875573169 343.84550187371985L293.1408875573169 343.84550187371985Q290.91545993076454 344.06186289296795 289.3391153619566 345.2673028573505Q287.7936795101841 346.5036515387685 287.7936795101841 349.4090709401007L287.7936795101841 349.4090709401007Q287.7936795101841 359.6398562788345 287.91731437832595 370.2106375049583Q288.0100405294323 380.781418731082 288.473671284964 391.90855686384396L288.473671284964 391.90855686384396Q288.9063933234603 399.0175617819973 291.90453887589894 403.2520560158539Q294.9026844283376 407.4865502497105 303.15531187680256 409.03198610148297L303.15531187680256 409.03198610148297Q306.9261753551274 409.71197787626284 308.71888094318354 410.6083306702909Q310.4806778142041 411.4737747472834 310.4806778142041 413.05011931609135L310.4806778142041 413.05011931609135Q310.4806778142041 414.37919414861574 308.71888094318354 414.93555105525377Q306.9261753551274 415.4919079618919 304.05166467083063 415.4919079618919L304.05166467083063 415.4919079618919Q298.02446484891794 415.4919079618919 294.8099582772312 415.0591859233956Q291.56454298850895 414.59555516786384 289.0300281916021 414.2555592804739Q286.4646046776598 413.94647211011943 282.23011044380326 413.94647211011943L282.23011044380326 413.94647211011943Q276.88290239667043 413.94647211011943 272.7720430309556 414.2555592804739Q268.66118366524086 414.59555516786384 264.42668943138426 415.0591859233956Q260.19219519752767 415.4919079618919 254.19590409265044 415.4919079618919ZM380.58164805060375 417.50097456919616L380.58164805060375 417.50097456919616Q375.6980707590027 417.50097456919616 372.01993343178424 413.8228372419776Q368.3417961045657 410.14469991475914 368.3417961045657 405.26112262315814L368.3417961045657 405.26112262315814Q368.3417961045657 400.1302755952735 372.01993343178424 396.57577313619674Q375.6980707590027 393.0212706771201 380.58164805060375 393.0212706771201L380.58164805060375 393.0212706771201Q385.71249507848836 393.0212706771201 389.2669975375651 396.57577313619674Q392.82149999664176 400.1302755952735 392.82149999664176 405.26112262315814L392.82149999664176 405.26112262315814Q392.82149999664176 410.14469991475914 389.2669975375651 413.8228372419776Q385.71249507848836 417.50097456919616 380.58164805060375 417.50097456919616Z " fill="black" transform="matrix(0.8137381353860796,0,0,0.8137381353860796,0,21.29389870947921)"/><path d="M574.4454041044899 415.21509080034684L574.4454041044899 415.21509080034684Q572.3620707772886 415.21509080034684 571.320404113688 414.69425746854654Q570.2787374500874 414.17342413674623 570.2787374500874 412.90027599234554L570.2787374500874 412.90027599234554Q570.2787374500874 411.25097044164454 571.6386911497882 410.6143963694442Q572.969709664389 410.0067574823439 575.0530429915901 409.5727297058437L575.0530429915901 409.5727297058437Q579.8562837181928 408.531063042243 581.939617045394 406.5634704554419Q584.0229503725951 404.5669426835408 584.0229503725951 400.40027602913847L584.0229503725951 400.40027602913847L584.0229503725951 341.6618502761055Q581.939617045394 341.6618502761055 579.2197096459925 341.54610953570545Q576.528737431691 341.4593039804055 573.2011911451891 341.25675768470535L573.2011911451891 341.25675768470535Q572.5646170729888 341.02527620390515 571.4072096689881 339.7810632446045Q570.2787374500874 338.5368502853038 570.2787374500874 337.4951836217032L570.2787374500874 337.4951836217032Q570.2787374500874 337.09009103030303 570.8863763371878 336.77180399420286Q571.5229504093882 336.4535169581027 571.7254967050883 336.25097066240255L571.7254967050883 336.25097066240255Q575.4870707680903 334.37018363090147 578.1780429823918 332.9234243759007Q580.8979503817934 331.4477299357999 584.0229503725951 330.000970680799L584.0229503725951 330.000970680799Q584.0229503725951 311.8586096230888 588.5079040630976 299.79263743638205Q592.9928577536002 287.6977300645753 600.0530429180042 280.60860971507134Q607.1421632675081 273.5484245506674 615.0704039849126 270.51023011516565Q622.969709517217 267.500970864764 629.8562835710209 267.500970864764L629.8562835710209 267.500970864764Q641.5171631663274 267.500970864764 647.1595242608305 271.03106344696596Q652.7729501702337 274.59009121426794 652.7729501702337 280.00097082797095L652.7729501702337 280.00097082797095Q652.7729501702337 284.1676374823733 650.6896168430326 286.2509708095745Q648.6062835158314 288.33430413677564 645.6838298207297 288.33430413677564L645.6838298207297 288.33430413677564Q643.8030427892287 288.33430413677564 642.2405427938278 286.8586096966748Q640.678042798427 285.411850441674 638.5947094712258 283.5310634101729L638.5947094712258 283.5310634101729Q635.9037372569243 280.8400911958714 631.9396168982221 278.43847083257015Q627.9754965395198 276.03685046926876 621.117857670816 276.03685046926876L621.117857670816 276.03685046926876Q611.3088299219105 276.03685046926876 604.9720243850069 284.5727300737735Q598.6062836630033 293.1086096782783 598.6062836630033 310.8169429594883L598.6062836630033 310.8169429594883L598.6062836630033 329.16185031289854Q598.6062836630033 330.4060632721993 599.3296632905037 330.8400910486995Q600.0530429180042 331.24518364009975 600.8921632859046 331.24518364009975L600.8921632859046 331.24518364009975L626.9338298759192 331.24518364009975Q627.9754965395198 331.24518364009975 628.8146169074203 331.8817577123001Q629.6537372753207 332.4893965994004 629.6537372753207 333.531063263001L629.6537372753207 333.531063263001Q629.6537372753207 335.0067577031018 629.3354502392206 336.6560632538027Q629.0171632031204 338.33430398960365 628.40952431602 339.5785169489044L628.40952431602 339.5785169489044Q627.7729502438197 341.25675768470535 626.5287372845189 341.25675768470535L626.5287372845189 341.25675768470535L602.5704040217056 341.25675768470535Q600.0530429180042 341.25675768470535 599.3296632905037 341.9801373122058Q598.6062836630033 342.7035169397061 598.6062836630033 343.94772989900684L598.6062836630033 343.94772989900684L598.6062836630033 400.40027602913847Q598.6062836630033 404.5669426835408 601.3261910624049 406.5634704554419Q604.0171632767064 408.531063042243 612.350496585511 409.5727297058437L612.350496585511 409.5727297058437Q617.1537373121137 410.20930377804393 617.1537373121137 412.90027599234554L617.1537373121137 412.90027599234554Q617.1537373121137 414.17342413674623 616.1120706485132 414.69425746854654Q615.0704039849126 415.21509080034684 612.9870706577115 415.21509080034684L612.9870706577115 415.21509080034684Q606.7370706761078 415.21509080034684 601.9338299495053 414.69425746854654Q597.1595244080025 414.17342413674623 591.7197096091995 414.17342413674623L591.7197096091995 414.17342413674623Q588.1896170269974 414.17342413674623 585.9037374040962 414.37597043244637Q583.617857781195 414.5785167281464 581.1004966774935 414.89680376424656Q578.6120707588921 415.21509080034684 574.4454041044899 415.21509080034684ZM655.261376088835 415.21509080034684L655.261376088835 415.21509080034684Q653.409524242434 415.21509080034684 652.2521168384334 414.69425746854654Q651.0947094344327 414.17342413674623 651.0947094344327 412.90027599234554L651.0947094344327 412.90027599234554Q651.0947094344327 411.25097044164454 652.6572094298336 410.6143963694442Q654.2197094252344 410.0067574823439 655.8979501610354 409.5727297058437L655.8979501610354 409.5727297058437Q660.267163111138 408.531063042243 662.5530427340392 406.9685630468422Q664.8678575420405 405.40606305144127 664.8678575420405 401.67342417353916L664.8678575420405 401.67342417353916L664.8678575420405 356.4477298622138Q664.8678575420405 350.8343039528107 662.8713297701394 346.4650910027083Q660.9037371833383 342.06694286750576 655.4928575696352 341.25675768470535L655.4928575696352 341.25675768470535Q654.4511909060346 341.02527620390515 653.9303575742343 340.41763731680487Q653.409524242434 339.7810632446045 653.409524242434 338.5368502853038L653.409524242434 338.5368502853038Q653.409524242434 336.25097066240255 655.261376088835 336.0484243667024L655.261376088835 336.0484243667024Q663.5947093976397 334.16763733520133 669.0345241964428 330.9268966039996Q674.4454038101459 327.7150910578978 677.1363760244474 325.63175773069656L677.1363760244474 325.63175773069656Q679.0171630559485 324.15606329059574 680.058829719549 324.15606329059574L680.058829719549 324.15606329059574Q681.3030426788497 324.15606329059574 681.3030426788497 325.19772995419635L681.3030426788497 325.19772995419635Q681.3030426788497 326.8759706899973 680.7822093470494 331.76601697190006Q680.2613760152491 336.6560632538027 679.8562834238489 342.58777619930606Q679.4511908324487 348.5484243299094 679.4511908324487 353.3227298714121L679.4511908324487 353.3227298714121L679.4511908324487 401.67342417353916Q679.4511908324487 405.20351675574113 681.82387601065 406.8817574915421Q684.2254963739514 408.531063042243 688.3921630283537 409.5727297058437L688.3921630283537 409.5727297058437Q690.0704037641547 410.0067574823439 691.6329037595555 410.6143963694442Q693.1954037549564 411.25097044164454 693.1954037549564 412.90027599234554L693.1954037549564 412.90027599234554Q693.1954037549564 415.21509080034684 689.028737100554 415.21509080034684L689.028737100554 415.21509080034684Q685.0646167418518 415.21509080034684 682.6629963785505 414.89680376424656Q680.2613760152491 414.5785167281464 678.0912371327479 414.37597043244637Q675.8921630651466 414.17342413674623 672.1595241872445 414.17342413674623L672.1595241872445 414.17342413674623Q668.6004964199426 414.17342413674623 666.3146167970413 414.37597043244637Q664.02873717414 414.5785167281464 661.7428575512388 414.89680376424656Q659.4280427432375 415.21509080034684 655.261376088835 415.21509080034684ZM671.9280427064444 307.0843040815862L671.9280427064444 307.0843040815862Q667.558829756342 307.0843040815862 664.5495705059403 304.04610964608446Q661.5113760704386 301.0368503956828 661.5113760704386 296.66763744558034L661.5113760704386 296.66763744558034Q661.5113760704386 292.06694301467775 664.5495705059403 289.057683764276Q667.558829756342 286.04842451387435 671.9280427064444 286.04842451387435L671.9280427064444 286.04842451387435Q676.528737137347 286.04842451387435 679.5379963877486 289.057683764276Q682.5761908232504 292.06694301467775 682.5761908232504 296.66763744558034L682.5761908232504 296.66763744558034Q682.5761908232504 301.0368503956828 679.5379963877486 304.04610964608446Q676.528737137347 307.0843040815862 671.9280427064444 307.0843040815862ZM706.3030426052637 415.21509080034684L706.3030426052637 415.21509080034684Q704.4511907588627 415.21509080034684 703.2937833548621 414.69425746854654Q702.1363759508614 414.17342413674623 702.1363759508614 412.90027599234554L702.1363759508614 412.90027599234554Q702.1363759508614 411.25097044164454 703.4095240952621 410.73013710984424Q704.6537370545628 410.20930377804393 706.9396166774641 409.5727297058437L706.9396166774641 409.5727297058437Q710.0646166682658 408.7336093379431 712.9870703633675 407.28685008294235Q715.9095240584692 405.8400908279415 715.9095240584692 401.67342417353916L715.9095240584692 401.67342417353916L715.9095240584692 356.88175763871413Q715.9095240584692 351.2393965442109 714.7521166544684 347.2752761855087Q713.5947092504678 343.34009101190645 708.1838296367648 341.8643965718056L708.1838296367648 341.8643965718056Q707.3447092688643 341.4593039804055 706.7370703817639 340.9384706486052Q706.1004963095636 340.41763731680487 706.1004963095636 339.17342435750413L706.1004963095636 339.17342435750413Q706.1004963095636 336.85860954950283 707.9812833410647 336.6560632538027L707.9812833410647 336.6560632538027Q715.2729499862688 334.7752762223017 719.8447092320713 332.0843040080001Q724.445403662974 329.36439660859867 728.8146166130763 326.0368503220968L728.8146166130763 326.0368503220968Q729.4511906852767 325.63175773069656 729.9720240170769 325.3134706945964Q730.4928573488772 324.9951836584962 731.1004962359776 324.9951836584962L731.1004962359776 324.9951836584962Q731.5345240124778 324.9951836584962 731.8238758634781 325.4002762498965Q732.1421628995782 325.8343040263967 732.1421628995782 326.441942913497L732.1421628995782 326.441942913497Q732.1421628995782 327.9176373535978 731.6213295677779 332.4025910441004Q731.1004962359776 336.85860954950283 731.1004962359776 339.7810632446045L731.1004962359776 339.7810632446045Q731.1004962359776 340.620183612505 731.2162369763777 341.3435632400053Q731.3030425316778 342.06694286750576 731.5345240124778 342.29842434830596L731.5345240124778 342.29842434830596Q738.8261906576819 335.4118502945021 747.0437832260866 331.8817577123001Q755.2613757944912 328.32272994499806 765.0704035433967 328.32272994499806L765.0704035433967 328.32272994499806Q775.2845238837024 328.32272994499806 781.9396164567062 336.6560632538027Q788.5947090297099 344.98939656260745 788.5947090297099 357.2868502301143L788.5947090297099 357.2868502301143L788.5947090297099 401.67342417353916Q788.5947090297099 405.8400908279415 791.5171627248116 407.1711093425423Q794.4396164199131 408.531063042243 797.5646164107148 409.5727297058437L797.5646164107148 409.5727297058437Q799.2428571465158 410.20930377804393 800.8053571419167 410.93268340554437Q802.3678571373176 411.6560630330448 802.3678571373176 413.33430376884576L802.3678571373176 413.33430376884576Q802.3678571373176 414.5785167281464 800.8921626972168 414.89680376424656Q799.4454034422159 415.21509080034684 798.2011904829152 415.21509080034684L798.2011904829152 415.21509080034684Q794.034523828513 415.21509080034684 791.7197090205116 414.89680376424656Q789.4338293976103 414.5785167281464 787.3504960704091 414.37597043244637Q785.267162743208 414.17342413674623 781.5345238653059 414.17342413674623L781.5345238653059 414.17342413674623Q777.9754960980039 414.17342413674623 775.6896164751026 414.37597043244637Q773.4037368522014 414.5785167281464 771.0021164889 414.89680376424656Q768.6004961255986 415.21509080034684 764.4338294711963 415.21509080034684L764.4338294711963 415.21509080034684Q763.3921628075958 415.21509080034684 761.8296628121949 414.89680376424656Q760.267162816794 414.5785167281464 760.267162816794 413.33430376884576L760.267162816794 413.33430376884576Q760.267162816794 411.6560630330448 761.8296628121949 410.93268340554437Q763.3921628075958 410.20930377804393 765.0704035433967 409.5727297058437L765.0704035433967 409.5727297058437Q768.1954035341984 408.531063042243 771.1178572293001 407.1711093425423Q774.0113757393017 405.8400908279415 774.0113757393017 401.67342417353916L774.0113757393017 401.67342417353916L774.0113757393017 357.92342430231463Q774.0113757393017 348.7509706256095 768.9187831616988 343.62944286290667Q763.826190584096 338.5368502853038 755.2613757944912 338.33430398960365L755.2613757944912 338.33430398960365Q747.7671628535869 338.33430398960365 742.1537369441838 340.73592435290504Q736.5113758496806 343.10860953110637 732.1421628995782 346.6676372984084L732.1421628995782 346.6676372984084Q731.3030425316778 347.5067576663089 730.8979499402775 348.8377761809096Q730.4928573488772 350.1977298806104 730.4928573488772 351.441942839911L730.4928573488772 351.441942839911L730.4928573488772 401.67342417353916Q730.4928573488772 405.8400908279415 733.3863758588789 407.28685008294235Q736.3088295539806 408.7336093379431 739.4338295447823 409.5727297058437L739.4338295447823 409.5727297058437Q744.237070271385 410.8169426651443 744.237070271385 412.90027599234554L744.237070271385 412.90027599234554Q744.237070271385 414.17342413674623 743.1954036077844 414.69425746854654Q742.1537369441838 415.21509080034684 740.0704036169826 415.21509080034684L740.0704036169826 415.21509080034684Q735.9037369625803 415.21509080034684 733.502116599279 414.89680376424656Q731.1004962359776 414.5785167281464 729.0171629087764 414.37597043244637Q726.9338295815753 414.17342413674623 723.2011907036732 414.17342413674623L723.2011907036732 414.17342413674623Q719.6421629363712 414.17342413674623 717.47202405387 414.37597043244637Q715.2729499862688 414.5785167281464 712.8713296229674 414.89680376424656Q710.469709259666 415.21509080034684 706.3030426052637 415.21509080034684ZM846.5229495999423 417.5009704232481L846.5229495999423 417.5009704232481Q836.3088292596366 417.5009704232481 830.5796626098335 411.25097044164454Q824.8504959600301 405.0009704600411 824.8504959600301 392.7035167925342L824.8504959600301 392.7035167925342L824.8504959600301 344.38175767550706Q824.8504959600301 342.7035169397061 823.6062830007295 341.9801373122058Q822.3620700414288 341.25675768470535 818.1954033870264 341.25675768470535L818.1954033870264 341.25675768470535L816.9511904277258 341.25675768470535Q815.9095237641252 341.25675768470535 815.1572089515247 339.89680398500457Q814.4338293240244 338.5368502853038 814.4338293240244 337.09009103030303L814.4338293240244 337.09009103030303Q814.4338293240244 336.6560632538027 815.0704033962247 335.8169428859022Q815.678042283325 335.0067577031018 815.9095237641252 334.7752762223017L815.9095237641252 334.7752762223017Q820.0761904185275 331.8817577123001 823.4905422603293 328.9593040171984Q826.9338292872313 326.0368503220968 829.740542241933 323.2301373673952Q832.5761903817346 320.42342441269363 834.4280422281355 318.10860960469233L834.4280422281355 318.10860960469233Q835.4697088917361 317.0669429410917 836.2220237043365 316.3435633135914Q836.9454033318369 315.62018368609097 837.9870699954375 315.62018368609097L837.9870699954375 315.62018368609097Q839.0287366590381 315.62018368609097 839.9546625822387 316.0252762774911Q840.9095236905392 316.45930405399145 840.6780422097391 317.9060633089922L840.6780422097391 317.9060633089922L839.6363755461385 327.28106328139745Q839.4338292504384 329.5669429042988 840.6780422097391 330.4060632721993Q841.9511903541398 331.24518364009975 844.6421625684412 331.24518364009975L844.6421625684412 331.24518364009975L868.3979495355546 331.24518364009975Q869.2370699034551 331.24518364009975 869.8447087905555 332.60513733980054Q870.4812828627558 333.9650910395012 870.4812828627558 335.8169428859022L870.4812828627558 335.8169428859022Q870.4812828627558 337.6977299174033 869.8447087905555 339.46277620850435Q869.2370699034551 341.25675768470535 868.3979495355546 341.25675768470535L868.3979495355546 341.25675768470535L847.767162559243 341.25675768470535Q842.5588292412401 341.25675768470535 840.9963292458393 342.06694286750576Q839.4338292504384 342.90606323540624 839.4338292504384 347.07272988980856L839.4338292504384 347.07272988980856L839.4338292504384 388.1317575467316Q839.4338292504384 396.46509085553623 842.9928570177404 401.23939639703894Q846.5229495999423 406.0426371236416 853.1780421729461 406.0426371236416L853.1780421729461 406.0426371236416Q859.2254958588495 406.0426371236416 862.5530421453512 405.0877760153411Q865.9095236169533 404.16185009214064 868.6004958312548 402.28106306063955L868.6004958312548 402.28106306063955Q869.034523607755 401.8759704692393 869.4396161991552 401.8759704692393L869.4396161991552 401.8759704692393Q870.2787365670557 401.8759704692393 870.5970236031559 402.80189639243986Q870.8863754541561 403.7567575007404 870.8863754541561 404.798424164341L870.8863754541561 404.798424164341Q870.8863754541561 405.8400908279415 867.4720236123541 408.9650908187433Q864.0287365854522 412.090090809545 858.5021162313491 414.7810630238465Q852.975495877246 417.5009704232481 846.5229495999423 417.5009704232481ZM882.7787365302627 415.21509080034684L882.7787365302627 415.21509080034684Q880.6954032030616 415.21509080034684 879.653736539461 414.69425746854654Q878.6120698758604 414.17342413674623 878.6120698758604 412.90027599234554L878.6120698758604 412.90027599234554Q878.6120698758604 411.25097044164454 879.8562828351611 410.73013710984424Q881.1004957944618 410.20930377804393 883.386375417363 409.5727297058437L883.386375417363 409.5727297058437Q887.3504957760653 408.531063042243 889.3470235479664 406.5634704554419Q891.3146161347674 404.5669426835408 891.3146161347674 401.67342417353916L891.3146161347674 401.67342417353916L891.3146161347674 356.88175763871413Q891.3146161347674 351.2393965442109 889.6363753989666 347.07272988980856Q887.9870698482656 342.90606323540624 882.7787365302627 341.8643965718056L882.7787365302627 341.8643965718056Q881.9396161623622 341.6618502761055 881.3030420901619 340.82272990820513Q880.6954032030616 339.98360954030466 880.6954032030616 339.17342435750413L880.6954032030616 339.17342435750413Q880.6954032030616 337.09009103030303 882.5761902345625 336.6560632538027L882.5761902345625 336.6560632538027Q887.9870698482656 335.0067577031018 893.9187827937689 331.76601697190006Q899.8504957392722 328.5252762406982 903.1780420257741 326.441942913497L903.1780420257741 326.441942913497Q904.4511901701748 325.63175773069656 905.1745697976752 325.3134706945964Q905.8979494251756 324.9951836584962 906.3030420165759 324.9951836584962L906.3030420165759 324.9951836584962Q907.3447086801765 324.9951836584962 907.3447086801765 326.441942913497L907.3447086801765 326.441942913497Q907.3447086801765 327.07851698569743 907.2579031248764 329.5669429042988Q907.1421623844764 332.0843040080001 907.0553568291763 335.4118502945021Q906.9396160887762 338.7393965810039 906.7370697930761 342.06694286750576L906.7370697930761 342.06694286750576Q906.7370697930761 342.500970644006 907.1421623844764 342.500970644006L907.1421623844764 342.500970644006Q910.4697086709782 338.33430398960365 914.5495697700804 335.20930399880194Q918.6004956840828 332.0843040080001 922.8829030788852 330.20351697649915Q927.1363752885876 328.32272994499806 931.1004956472898 328.32272994499806L931.1004956472898 328.32272994499806Q935.4697085973922 328.32272994499806 938.3053567371938 330.20351697649915Q941.1120696918953 332.0843040080001 941.1120696918953 335.0067577031018L941.1120696918953 335.0067577031018Q941.1120696918953 337.09009103030303 939.9546622878947 339.5785169489044Q938.8261900689942 342.06694286750576 936.9454030374931 343.94772989900684Q935.064616005992 345.82851693050793 932.9812826787908 345.82851693050793L932.9812826787908 345.82851693050793Q931.7370697194901 345.82851693050793 930.2613752793893 345.3076835987076Q928.8146160243886 344.7868502669073 927.1363752885876 343.94772989900684L927.1363752885876 343.94772989900684Q925.4870697378866 343.34009101190645 923.8088290020856 342.7035169397061Q922.1595234513849 342.06694286750576 920.4812827155839 342.06694286750576L920.4812827155839 342.06694286750576Q915.475495693281 342.06694286750576 910.7879957070784 345.6259706348078Q906.1004957208758 349.1560632170098 906.1004957208758 359.57272985301563L906.1004957208758 359.57272985301563L906.1004957208758 401.67342417353916Q906.1004957208758 404.36439638784066 909.0229494159775 406.1294426789417Q911.945403111079 407.9234241551427 917.153736429082 409.5727297058437L917.153736429082 409.5727297058437Q919.4396160519833 410.20930377804393 920.6838290112839 410.8169426651443Q921.9280419705847 411.45351673734467 921.9280419705847 412.90027599234554L921.9280419705847 412.90027599234554Q921.9280419705847 415.21509080034684 917.7613753161824 415.21509080034684L917.7613753161824 415.21509080034684Q911.5113753345787 415.21509080034684 908.299569788477 414.69425746854654Q905.0588290572751 414.17342413674623 899.6479494435722 414.17342413674623L899.6479494435722 414.17342413674623Q896.1178568613701 414.17342413674623 893.9187827937689 414.37597043244637Q891.7197087261676 414.5785167281464 889.3470235479664 414.89680376424656Q886.945403184665 415.21509080034684 882.7787365302627 415.21509080034684ZM950.8921622557008 415.21509080034684L950.8921622557008 415.21509080034684Q946.1178567141982 415.21509080034684 946.1178567141982 412.90027599234554L946.1178567141982 412.90027599234554Q946.1178567141982 411.25097044164454 947.6803567095991 410.73013710984424Q949.2428567049999 410.20930377804393 950.8921622557008 409.5727297058437L950.8921622557008 409.5727297058437Q954.0171622465026 408.531063042243 956.9396159416043 406.8817574915421Q959.862069636706 405.20351675574113 959.862069636706 401.0368501013388L959.862069636706 401.0368501013388L959.862069636706 296.66763744558034Q959.862069636706 289.3759708003762 957.7787363095048 286.04842451387435Q955.6954029823036 282.6919430422725 950.4870696643006 281.4477300829718L950.4870696643006 281.4477300829718Q948.6062826327995 281.04263749157155 948.6062826327995 278.7567578686703L948.6062826327995 278.7567578686703Q948.6062826327995 276.6734245414691 950.2845233686006 276.2393967649689L950.2845233686006 276.2393967649689Q955.6954029823036 274.99518380566815 959.6595233410059 273.63523010596737Q963.594708514608 272.27527640626664 966.8354492458099 270.94425789166587Q970.0761899770117 269.58430419196515 973.2011899678133 268.34009123266446L973.2011899678133 268.34009123266446Q974.4454029271141 267.7035171604641 975.0530418142145 267.7035171604641L975.0530418142145 267.7035171604641Q975.6896158864148 267.7035171604641 976.007902922515 268.1086097518643Q976.3261899586151 268.5426375283646 976.3261899586151 269.58430419196515L976.3261899586151 269.58430419196515Q976.3261899586151 271.6676375191663 975.3713288503146 277.91763750076984Q974.4454029271141 284.1676374823733 974.4454029271141 297.5067578134808L974.4454029271141 297.5067578134808L974.4454029271141 365.82272983461905Q974.4454029271141 367.70351686612014 975.4870695907147 367.70351686612014L975.4870695907147 367.70351686612014Q976.7312825500153 367.70351686612014 978.6988751368164 366.66185020251953Q980.6954029087175 365.62018353891904 982.981282531619 363.5368502117178L982.981282531619 363.5368502117178Q991.5171621361237 356.2451835665137 997.246328785927 350.3134706210104Q1002.9754954357301 344.38175767550706 1005.0588287629313 342.06694286750576L1005.0588287629313 342.06694286750576Q1006.1004954265319 340.82272990820513 1006.5345232030321 340.0993502807047Q1006.9396157944324 339.37597065320426 1006.9396157944324 338.94194287670405L1006.9396157944324 338.94194287670405Q1006.9396157944324 337.90027621310344 1005.1745695033313 337.09009103030303Q1003.4095232122303 336.25097066240255 1001.5287361807293 335.8169428859022L1001.5287361807293 335.8169428859022Q999.0113750770278 335.20930399880194 999.0113750770278 333.7336095587011L999.0113750770278 333.7336095587011Q999.0113750770278 332.6919428951005 1000.2845232214286 331.9685632676001Q1001.5287361807293 331.24518364009975 1003.6120695079304 331.24518364009975L1003.6120695079304 331.24518364009975L1013.8261898482361 331.24518364009975Q1017.153736134738 331.24518364009975 1020.7995694573401 330.6086095678994Q1024.445402779942 330.000970680799 1027.657208326044 329.36439660859867Q1030.8979490572456 328.7567577214983 1032.7787360887469 328.7567577214983L1032.7787360887469 328.7567577214983Q1035.7011897838483 328.7567577214983 1035.7011897838483 330.8400910486995L1035.7011897838483 330.8400910486995Q1035.7011897838483 332.0843040080001 1034.2254953437478 333.0102299312007Q1032.7787360887469 333.9650910395012 1030.4928564658453 334.5727299266016L1030.4928564658453 334.5727299266016Q1026.5287361071432 335.6143965902022 1023.0854490802413 337.4951836217032Q1019.6421620533395 339.37597065320426 1016.7197083582379 341.02527620390515L1016.7197083582379 341.02527620390515Q1015.4754953989371 341.8643965718056 1010.9905417084345 345.51022989440776Q1006.5345232030321 349.1560632170098 1000.8053565532289 353.95930394361244Q995.0761899034256 358.73360948511515 990.0704028811228 363.13175762031756L990.0704028811228 363.13175762031756Q988.8261899218221 364.3759705796183 988.8261899218221 365.2150909475188L988.8261899218221 365.2150909475188Q988.8261899218221 365.4176372432189 989.0287362175222 365.82272983461905Q989.2312825132224 366.2567576111194 989.4338288089224 366.66185020251953L989.4338288089224 366.66185020251953Q994.8447084226256 373.31694277552333 1001.094708404229 380.2035168293272Q1007.3447083858325 387.090090883131 1012.6687824442355 392.2984242011339Q1017.9928565026386 397.50675751913684 1020.0761898298397 399.59009084633806L1020.0761898298397 399.59009084633806Q1023.6062824120417 402.9176371328399 1028.0912361025441 405.5218037918413Q1032.5761897930465 408.12597045084283 1035.7011897838483 409.16763711444344L1035.7011897838483 409.16763711444344Q1037.98706940675 410.0067574823439 1039.9546619935509 410.6143963694442Q1041.951189765452 411.25097044164454 1041.951189765452 412.90027599234554L1041.951189765452 412.90027599234554Q1041.951189765452 415.21509080034684 1037.7845231110496 415.21509080034684L1037.7845231110496 415.21509080034684Q1029.653736097945 415.21509080034684 1019.5553564980394 414.89680376424656Q1009.4280417130336 414.5785167281464 998.8088287813277 414.5785167281464L998.8088287813277 414.5785167281464Q995.0761899034256 414.5785167281464 995.0761899034256 412.6977296966454L995.0761899034256 412.6977296966454Q995.0761899034256 411.45351673734467 996.1178565670263 410.6143963694442Q997.1595232306269 409.7752760015437 998.6062824856276 409.37018341014357L998.6062824856276 409.37018341014357Q1000.8921621085289 408.531063042243 1002.5704028443298 407.4893963786425Q1004.2197083950308 406.4477297150419 1004.2197083950308 404.5669426835408L1004.2197083950308 404.5669426835408Q1004.2197083950308 403.9593037964405 1003.8146158036305 403.2359241689401Q1003.4095232122303 402.4836093563397 1002.7729491400299 401.67342417353916L1002.7729491400299 401.67342417353916L977.5704029179159 373.1143964798232Q976.3261899586151 371.66763722482233 975.4870695907147 371.66763722482233L975.4870695907147 371.66763722482233Q974.4454029271141 371.66763722482233 974.4454029271141 373.1143964798232L974.4454029271141 373.1143964798232Q974.2428566314139 376.0368501749248 974.2428566314139 379.4801372018268Q974.2428566314139 382.92342422872866 974.2428566314139 386.45351681093064L974.2428566314139 386.45351681093064Q974.2428566314139 389.9836093931326 974.2428566314139 393.7451834561348Q974.2428566314139 397.50675751913684 974.4454029271141 401.0368501013388L974.4454029271141 401.0368501013388Q974.4454029271141 405.20351675574113 976.5287362543153 406.8817574915421Q978.6120695815164 408.531063042243 981.7370695723182 409.5727297058437L981.7370695723182 409.5727297058437Q983.3863751230191 410.20930377804393 984.94887511842 410.73013710984424Q986.5113751138209 411.25097044164454 986.5113751138209 412.90027599234554L986.5113751138209 412.90027599234554Q986.5113751138209 414.37597043244637 984.5437825270197 414.7810630238465Q982.5761899402186 415.21509080034684 981.7370695723182 415.21509080034684L981.7370695723182 415.21509080034684Q977.7729492136159 415.21509080034684 975.8921621821149 414.89680376424656Q974.0113751506138 414.5785167281464 972.4488751552129 414.37597043244637Q970.886375159812 414.17342413674623 967.1537362819099 414.17342413674623L967.1537362819099 414.17342413674623Q963.594708514608 414.17342413674623 961.5113751874068 414.37597043244637Q959.4280418602056 414.5785167281464 957.2579029777045 414.89680376424656Q955.0588289101032 415.21509080034684 950.8921622557008 415.21509080034684ZM1063.8261897010643 417.5009704232481L1063.8261897010643 417.5009704232481Q1059.2254952701617 417.5009704232481 1055.7822082432597 414.0576833963462Q1052.3678564014576 410.6143963694442 1052.3678564014576 406.0426371236416L1052.3678564014576 406.0426371236416Q1052.3678564014576 401.23939639703894 1055.7822082432597 397.9118501105371Q1059.2254952701617 394.58430382403526 1063.8261897010643 394.58430382403526L1063.8261897010643 394.58430382403526Q1068.600495242567 394.58430382403526 1071.9280415290687 397.9118501105371Q1075.2845230006706 401.23939639703894 1075.2845230006706 406.0426371236416L1075.2845230006706 406.0426371236416Q1075.2845230006706 410.6143963694442 1071.9280415290687 414.0576833963462Q1068.600495242567 417.5009704232481 1063.8261897010643 417.5009704232481Z " fill="white" transform="matrix(0.8137381353860796,0,0,0.8137381353860796,0,21.29389870947921)"/></g></svg>